<mxfile host="app.diagrams.net" modified="2022-03-27T12:08:22.819Z" agent="5.0 (Macintosh; Intel Mac OS X 10_13_6) AppleWebKit/537.36 (KHTML, like Gecko) Chrome/99.0.4844.51 Safari/537.36" etag="2S5MSawkyiHumXAwmII6" version="15.8.3" type="github">
  <diagram id="9wihCCf8eRWeNGSp9daF" name="Page-1">
    <mxGraphModel dx="1773" dy="517" grid="1" gridSize="10" guides="1" tooltips="1" connect="1" arrows="1" fold="1" page="1" pageScale="1" pageWidth="827" pageHeight="1169" math="0" shadow="0">
      <root>
        <mxCell id="0" />
        <mxCell id="1" parent="0" />
        <mxCell id="8s0VNPTJ3u9oYpRXcKkL-26" style="edgeStyle=orthogonalEdgeStyle;rounded=0;orthogonalLoop=1;jettySize=auto;html=1;exitX=0;exitY=0.5;exitDx=0;exitDy=0;" edge="1" parent="1" source="8s0VNPTJ3u9oYpRXcKkL-1" target="8s0VNPTJ3u9oYpRXcKkL-20">
          <mxGeometry relative="1" as="geometry" />
        </mxCell>
        <mxCell id="8s0VNPTJ3u9oYpRXcKkL-27" value="ref" style="edgeLabel;html=1;align=center;verticalAlign=middle;resizable=0;points=[];" vertex="1" connectable="0" parent="8s0VNPTJ3u9oYpRXcKkL-26">
          <mxGeometry x="-0.0667" y="2" relative="1" as="geometry">
            <mxPoint as="offset" />
          </mxGeometry>
        </mxCell>
        <mxCell id="8s0VNPTJ3u9oYpRXcKkL-1" value="Literal" style="rounded=0;whiteSpace=wrap;html=1;" vertex="1" parent="1">
          <mxGeometry x="110" y="80" width="120" height="60" as="geometry" />
        </mxCell>
        <mxCell id="8s0VNPTJ3u9oYpRXcKkL-28" style="edgeStyle=orthogonalEdgeStyle;rounded=0;orthogonalLoop=1;jettySize=auto;html=1;entryX=0.5;entryY=0;entryDx=0;entryDy=0;" edge="1" parent="1" source="8s0VNPTJ3u9oYpRXcKkL-2" target="8s0VNPTJ3u9oYpRXcKkL-20">
          <mxGeometry relative="1" as="geometry">
            <Array as="points">
              <mxPoint x="370" y="30" />
              <mxPoint x="-95" y="30" />
            </Array>
          </mxGeometry>
        </mxCell>
        <mxCell id="8s0VNPTJ3u9oYpRXcKkL-29" value="ref" style="edgeLabel;html=1;align=center;verticalAlign=middle;resizable=0;points=[];" vertex="1" connectable="0" parent="8s0VNPTJ3u9oYpRXcKkL-28">
          <mxGeometry x="0.0281" y="1" relative="1" as="geometry">
            <mxPoint as="offset" />
          </mxGeometry>
        </mxCell>
        <mxCell id="8s0VNPTJ3u9oYpRXcKkL-2" value="Variable" style="rounded=0;whiteSpace=wrap;html=1;" vertex="1" parent="1">
          <mxGeometry x="310" y="80" width="120" height="60" as="geometry" />
        </mxCell>
        <mxCell id="8s0VNPTJ3u9oYpRXcKkL-31" style="edgeStyle=orthogonalEdgeStyle;rounded=0;orthogonalLoop=1;jettySize=auto;html=1;" edge="1" parent="1" source="8s0VNPTJ3u9oYpRXcKkL-3" target="8s0VNPTJ3u9oYpRXcKkL-5">
          <mxGeometry relative="1" as="geometry" />
        </mxCell>
        <mxCell id="8s0VNPTJ3u9oYpRXcKkL-32" value="as" style="edgeLabel;html=1;align=center;verticalAlign=middle;resizable=0;points=[];" vertex="1" connectable="0" parent="8s0VNPTJ3u9oYpRXcKkL-31">
          <mxGeometry x="0.0133" relative="1" as="geometry">
            <mxPoint as="offset" />
          </mxGeometry>
        </mxCell>
        <mxCell id="8s0VNPTJ3u9oYpRXcKkL-3" value="Expression" style="rounded=0;whiteSpace=wrap;html=1;" vertex="1" parent="1">
          <mxGeometry x="294" y="260" width="120" height="60" as="geometry" />
        </mxCell>
        <mxCell id="8s0VNPTJ3u9oYpRXcKkL-4" value="Operrator" style="rounded=0;whiteSpace=wrap;html=1;" vertex="1" parent="1">
          <mxGeometry x="520" y="80" width="120" height="60" as="geometry" />
        </mxCell>
        <mxCell id="8s0VNPTJ3u9oYpRXcKkL-5" value="Statement" style="rounded=0;whiteSpace=wrap;html=1;" vertex="1" parent="1">
          <mxGeometry x="294" y="395" width="120" height="60" as="geometry" />
        </mxCell>
        <mxCell id="8s0VNPTJ3u9oYpRXcKkL-6" value="Function" style="rounded=0;whiteSpace=wrap;html=1;" vertex="1" parent="1">
          <mxGeometry x="420" y="555" width="120" height="60" as="geometry" />
        </mxCell>
        <mxCell id="8s0VNPTJ3u9oYpRXcKkL-8" value="Module" style="rounded=0;whiteSpace=wrap;html=1;" vertex="1" parent="1">
          <mxGeometry x="80" y="1130" width="120" height="60" as="geometry" />
        </mxCell>
        <mxCell id="8s0VNPTJ3u9oYpRXcKkL-9" value="Package" style="rounded=0;whiteSpace=wrap;html=1;" vertex="1" parent="1">
          <mxGeometry x="80" y="1250" width="120" height="60" as="geometry" />
        </mxCell>
        <mxCell id="8s0VNPTJ3u9oYpRXcKkL-10" value="" style="endArrow=diamondThin;endFill=0;endSize=24;html=1;rounded=0;exitX=0.5;exitY=1;exitDx=0;exitDy=0;entryX=0.25;entryY=0;entryDx=0;entryDy=0;" edge="1" parent="1" source="8s0VNPTJ3u9oYpRXcKkL-1" target="8s0VNPTJ3u9oYpRXcKkL-3">
          <mxGeometry width="160" relative="1" as="geometry">
            <mxPoint x="120" y="200" as="sourcePoint" />
            <mxPoint x="280" y="200" as="targetPoint" />
          </mxGeometry>
        </mxCell>
        <mxCell id="8s0VNPTJ3u9oYpRXcKkL-13" value="" style="endArrow=diamondThin;endFill=0;endSize=24;html=1;rounded=0;exitX=0.5;exitY=1;exitDx=0;exitDy=0;entryX=0.5;entryY=0;entryDx=0;entryDy=0;" edge="1" parent="1" source="8s0VNPTJ3u9oYpRXcKkL-2" target="8s0VNPTJ3u9oYpRXcKkL-3">
          <mxGeometry width="160" relative="1" as="geometry">
            <mxPoint x="490" y="210" as="sourcePoint" />
            <mxPoint x="650" y="210" as="targetPoint" />
          </mxGeometry>
        </mxCell>
        <mxCell id="8s0VNPTJ3u9oYpRXcKkL-14" value="" style="endArrow=diamondThin;endFill=0;endSize=24;html=1;rounded=0;exitX=0.5;exitY=1;exitDx=0;exitDy=0;entryX=0.75;entryY=0;entryDx=0;entryDy=0;" edge="1" parent="1" source="8s0VNPTJ3u9oYpRXcKkL-4" target="8s0VNPTJ3u9oYpRXcKkL-3">
          <mxGeometry width="160" relative="1" as="geometry">
            <mxPoint x="570" y="290" as="sourcePoint" />
            <mxPoint x="730" y="290" as="targetPoint" />
          </mxGeometry>
        </mxCell>
        <mxCell id="8s0VNPTJ3u9oYpRXcKkL-15" value="" style="endArrow=diamondThin;endFill=0;endSize=24;html=1;rounded=0;exitX=1;exitY=0.25;exitDx=0;exitDy=0;entryX=1;entryY=0.75;entryDx=0;entryDy=0;" edge="1" parent="1" source="8s0VNPTJ3u9oYpRXcKkL-3" target="8s0VNPTJ3u9oYpRXcKkL-3">
          <mxGeometry width="160" relative="1" as="geometry">
            <mxPoint x="610" y="270" as="sourcePoint" />
            <mxPoint x="520" y="370" as="targetPoint" />
            <Array as="points">
              <mxPoint x="490" y="275" />
              <mxPoint x="490" y="290" />
              <mxPoint x="490" y="305" />
            </Array>
          </mxGeometry>
        </mxCell>
        <mxCell id="8s0VNPTJ3u9oYpRXcKkL-16" value="" style="endArrow=diamondThin;endFill=0;endSize=24;html=1;rounded=0;exitX=0.5;exitY=1;exitDx=0;exitDy=0;entryX=0.5;entryY=0;entryDx=0;entryDy=0;" edge="1" parent="1" source="8s0VNPTJ3u9oYpRXcKkL-8" target="8s0VNPTJ3u9oYpRXcKkL-9">
          <mxGeometry width="160" relative="1" as="geometry">
            <mxPoint x="190" y="1200" as="sourcePoint" />
            <mxPoint x="350" y="1200" as="targetPoint" />
          </mxGeometry>
        </mxCell>
        <mxCell id="8s0VNPTJ3u9oYpRXcKkL-17" value="Data Structure" style="html=1;" vertex="1" parent="1">
          <mxGeometry x="-150" y="250" width="110" height="50" as="geometry" />
        </mxCell>
        <mxCell id="8s0VNPTJ3u9oYpRXcKkL-18" value="Name" style="html=1;" vertex="1" parent="1">
          <mxGeometry x="80" y="1020" width="115" height="50" as="geometry" />
        </mxCell>
        <mxCell id="8s0VNPTJ3u9oYpRXcKkL-19" value="" style="endArrow=diamondThin;endFill=0;endSize=24;html=1;rounded=0;exitX=0.5;exitY=1;exitDx=0;exitDy=0;entryX=0.5;entryY=0;entryDx=0;entryDy=0;" edge="1" parent="1">
          <mxGeometry width="160" relative="1" as="geometry">
            <mxPoint x="137" y="1070" as="sourcePoint" />
            <mxPoint x="137" y="1130" as="targetPoint" />
          </mxGeometry>
        </mxCell>
        <mxCell id="8s0VNPTJ3u9oYpRXcKkL-20" value="Object" style="html=1;" vertex="1" parent="1">
          <mxGeometry x="-150" y="85" width="110" height="50" as="geometry" />
        </mxCell>
        <mxCell id="8s0VNPTJ3u9oYpRXcKkL-21" value="" style="endArrow=diamondThin;endFill=0;endSize=24;html=1;rounded=0;exitX=0.5;exitY=1;exitDx=0;exitDy=0;" edge="1" parent="1" source="8s0VNPTJ3u9oYpRXcKkL-20" target="8s0VNPTJ3u9oYpRXcKkL-17">
          <mxGeometry width="160" relative="1" as="geometry">
            <mxPoint x="-80" y="160" as="sourcePoint" />
            <mxPoint x="80" y="160" as="targetPoint" />
          </mxGeometry>
        </mxCell>
        <mxCell id="8s0VNPTJ3u9oYpRXcKkL-30" value="Control Statement" style="html=1;" vertex="1" parent="1">
          <mxGeometry x="530" y="400" width="110" height="50" as="geometry" />
        </mxCell>
        <mxCell id="8s0VNPTJ3u9oYpRXcKkL-33" value="" style="endArrow=diamondThin;endFill=0;endSize=24;html=1;rounded=0;exitX=0.5;exitY=1;exitDx=0;exitDy=0;" edge="1" parent="1" target="8s0VNPTJ3u9oYpRXcKkL-6">
          <mxGeometry width="160" relative="1" as="geometry">
            <mxPoint x="350" y="455" as="sourcePoint" />
            <mxPoint x="504" y="575" as="targetPoint" />
          </mxGeometry>
        </mxCell>
        <mxCell id="8s0VNPTJ3u9oYpRXcKkL-34" value="" style="endArrow=diamondThin;endFill=0;endSize=24;html=1;rounded=0;exitX=0.5;exitY=1;exitDx=0;exitDy=0;entryX=0.75;entryY=0;entryDx=0;entryDy=0;" edge="1" parent="1" target="8s0VNPTJ3u9oYpRXcKkL-6">
          <mxGeometry width="160" relative="1" as="geometry">
            <mxPoint x="590" y="450" as="sourcePoint" />
            <mxPoint x="690" y="550" as="targetPoint" />
          </mxGeometry>
        </mxCell>
        <mxCell id="8s0VNPTJ3u9oYpRXcKkL-35" value="Class" style="html=1;" vertex="1" parent="1">
          <mxGeometry x="40" y="660" width="110" height="50" as="geometry" />
        </mxCell>
        <mxCell id="8s0VNPTJ3u9oYpRXcKkL-37" value="" style="endArrow=diamondThin;endFill=0;endSize=24;html=1;rounded=0;exitX=0.5;exitY=1;exitDx=0;exitDy=0;entryX=0.5;entryY=0;entryDx=0;entryDy=0;" edge="1" parent="1" target="8s0VNPTJ3u9oYpRXcKkL-35">
          <mxGeometry width="160" relative="1" as="geometry">
            <mxPoint x="310" y="120" as="sourcePoint" />
            <mxPoint x="170" y="550" as="targetPoint" />
          </mxGeometry>
        </mxCell>
        <mxCell id="8s0VNPTJ3u9oYpRXcKkL-38" value="" style="endArrow=diamondThin;endFill=0;endSize=24;html=1;rounded=0;exitX=0;exitY=0.5;exitDx=0;exitDy=0;entryX=0.855;entryY=0.02;entryDx=0;entryDy=0;entryPerimeter=0;" edge="1" parent="1" source="8s0VNPTJ3u9oYpRXcKkL-6" target="8s0VNPTJ3u9oYpRXcKkL-35">
          <mxGeometry width="160" relative="1" as="geometry">
            <mxPoint x="250" y="535" as="sourcePoint" />
            <mxPoint x="350" y="635" as="targetPoint" />
          </mxGeometry>
        </mxCell>
      </root>
    </mxGraphModel>
  </diagram>
</mxfile>
